# xmcd
#
# Track frame offsets: 
#        182
#        2245
#        42372
#        90122
#        106887
#        168115
#
# Disc length: 2982 seconds
#
# Revision: 3
# Processed by: cddbd v1.5.2PL0 Copyright (c) Steve Scherf et al.
# Submitted via: ExactAudioCopy v0.95b4
#
DISCID=350ba406
DTITLE=Carlos Mencia - Take A Joke America
DYEAR=2000
DGENRE=Comedy
TTITLE0=Introduction
TTITLE1=Nobody Can Take a Joke Anymore
TTITLE2=Two Kinds Of Mexicans
TTITLE3=Friendship
TTITLE4=President Was Impeached
TTITLE5=Take A Joke America
EXTD=
EXTT0=
EXTT1=
EXTT2=
EXTT3=
EXTT4=
EXTT5=
PLAYORDER=
